<?xml version="1.0" encoding="UTF-8" standalone="no"?><!DOCTYPE svg PUBLIC "-//W3C//DTD SVG 1.1//EN" "http://www.w3.org/Graphics/SVG/1.1/DTD/svg11.dtd"><svg width="100%" height="100%" viewBox="0 0 224 29" version="1.1" xmlns="http://www.w3.org/2000/svg" xmlns:xlink="http://www.w3.org/1999/xlink" xml:space="preserve" xmlns:serif="http://www.serif.com/" style="fill-rule:evenodd;clip-rule:evenodd;stroke-linejoin:round;stroke-miterlimit:2;"><rect id="Plan-de-travail1" serif:id="Plan de travail1" x="0" y="0" width="223.823" height="28.886" style="fill:none;"/><clipPath id="_clip1"><rect x="0" y="0" width="223.823" height="28.886"/></clipPath><g clip-path="url(#_clip1)"><g id="b5a93e15-ef7c-9d7a-680b-cdb17474f15f"><path d="M49.769,23.107c-3.197,-0 -5.874,-1.078 -8.03,-3.234c-2.156,-2.156 -3.234,-4.847 -3.234,-8.074c0,-3.168 1.078,-5.837 3.234,-8.008c2.156,-2.156 4.833,-3.234 8.03,-3.234c3.212,-0 5.97,1.005 8.272,3.014l-2.992,3.278c-1.54,-1.203 -3.3,-1.804 -5.28,-1.804c-2.024,0.015 -3.659,0.653 -4.906,1.914c-1.232,1.247 -1.848,2.845 -1.848,4.796c0,2.097 0.624,3.762 1.87,4.994c1.247,1.232 2.882,1.848 4.906,1.848c1.628,-0 2.875,-0.315 3.74,-0.946l0,-3.872l-2.992,0.022l0,-4.224l7.502,-0l0,10.538c-2.288,1.995 -5.045,2.992 -8.272,2.992Zm16.346,-15.048l0,1.672c1.086,-1.1 2.398,-1.65 3.938,-1.65c0.484,-0 0.946,0.037 1.386,0.11l-0.66,4.158c-0.484,-0.44 -1.18,-0.675 -2.09,-0.704c-1.026,0.073 -1.884,0.814 -2.574,2.222l0,9.24l-4.202,-0l0,-14.586l4.202,-0.462Zm14.894,15.202c-2.185,-0 -4.011,-0.733 -5.478,-2.2c-1.452,-1.467 -2.178,-3.285 -2.178,-5.456c0,-2.185 0.726,-4.011 2.178,-5.478c1.467,-1.467 3.293,-2.2 5.478,-2.2c2.186,-0 4.012,0.733 5.478,2.2c1.467,1.467 2.2,3.293 2.2,5.478c0,2.185 -0.733,4.004 -2.2,5.456c-1.466,1.467 -3.292,2.2 -5.478,2.2Zm0,-3.63c1.13,-0 2.054,-0.389 2.772,-1.166c0.719,-0.763 1.078,-1.716 1.078,-2.86c0,-1.144 -0.359,-2.097 -1.078,-2.86c-0.718,-0.777 -1.65,-1.166 -2.794,-1.166c-1.129,-0 -2.053,0.389 -2.772,1.166c-0.704,0.763 -1.056,1.716 -1.056,2.86c0,1.144 0.352,2.097 1.056,2.86c0.719,0.777 1.65,1.166 2.794,1.166Zm19.602,-1.848l0,-9.724l4.202,-0l0,15.048l-4.202,-0l0,-1.364c-1.012,0.909 -2.214,1.364 -3.608,1.364c-1.906,-0 -3.358,-0.579 -4.356,-1.738c-1.012,-1.159 -1.518,-2.486 -1.518,-3.982l0,-9.328l4.224,-0l0,8.272c0,0.997 0.25,1.775 0.748,2.332c0.499,0.557 1.254,0.851 2.266,0.88c0.88,-0.059 1.628,-0.645 2.244,-1.76Zm11.99,11.66l-4.202,-0.022l0,-20.9l4.202,-0.462l0,1.21c1.13,-0.807 2.237,-1.21 3.322,-1.21c2.303,-0 4.129,0.755 5.478,2.266c1.364,1.496 2.046,3.249 2.046,5.258c0,2.009 -0.682,3.762 -2.046,5.258c-1.349,1.511 -3.175,2.266 -5.478,2.266c-1.51,-0.103 -2.618,-0.513 -3.322,-1.232l0,7.568Zm0,-15.224l0,2.442c0.206,1.687 1.262,2.677 3.168,2.97c2.406,-0.191 3.762,-1.437 4.07,-3.74c-0.102,-2.816 -1.459,-4.275 -4.07,-4.378c-1.906,0.308 -2.962,1.21 -3.168,2.706Zm20.636,9.042c-2.185,-0 -4.004,-0.733 -5.456,-2.2c-1.466,-1.467 -2.2,-3.285 -2.2,-5.456c0,-2.185 0.734,-4.011 2.2,-5.478c1.452,-1.467 3.271,-2.2 5.456,-2.2c2.186,-0 4.012,0.733 5.478,2.2c1.467,1.467 2.2,3.293 2.2,5.478c0,2.185 -0.733,4.004 -2.2,5.456c-1.466,1.467 -3.292,2.2 -5.478,2.2Zm0,-3.63c1.144,-0 2.068,-0.389 2.772,-1.166c0.719,-0.763 1.078,-1.716 1.078,-2.86c0,-1.144 -0.359,-2.097 -1.078,-2.86c-0.704,-0.777 -1.635,-1.166 -2.794,-1.166c-1.129,-0 -2.053,0.389 -2.772,1.166c-0.704,0.763 -1.056,1.716 -1.056,2.86c0,1.144 0.352,2.097 1.056,2.86c0.719,0.777 1.65,1.166 2.794,1.166Zm14.696,-6.138l0,9.614l-4.224,-0l0,-14.586l4.224,-0.462l0,1.342c0.939,-0.88 2.142,-1.32 3.608,-1.32c1.892,-0 3.344,0.572 4.356,1.716c1.1,-1.144 2.75,-1.716 4.95,-1.716c1.907,-0 3.366,0.572 4.378,1.716c0.998,1.159 1.496,2.493 1.496,4.004l0,9.306l-4.202,-0l0,-8.272c0,-0.997 -0.227,-1.775 -0.682,-2.332c-0.454,-0.543 -1.188,-0.829 -2.2,-0.858c-0.836,0.059 -1.554,0.609 -2.156,1.65c-0.058,0.308 -0.088,0.623 -0.088,0.946l0,8.866l-4.202,-0l0,-8.272c0,-0.997 -0.227,-1.775 -0.682,-2.332c-0.454,-0.543 -1.188,-0.829 -2.2,-0.858c-0.924,0.059 -1.716,0.675 -2.376,1.848Zm24.442,-1.056l-1.65,-2.552c1.907,-1.203 4.114,-1.804 6.622,-1.804c1.804,-0 3.227,0.499 4.268,1.496c1.056,1.012 1.584,2.515 1.584,4.51l0,9.02l-4.202,-0l0,-1.188c-1.232,0.792 -2.339,1.188 -3.322,1.188c-1.994,-0 -3.498,-0.425 -4.51,-1.276c-0.997,-0.851 -1.496,-2.024 -1.496,-3.52c0,-1.408 0.477,-2.662 1.43,-3.762c0.939,-1.1 2.464,-1.65 4.576,-1.65c0.983,-0 2.09,0.301 3.322,0.902l0,-0.462c-0.029,-1.1 -0.836,-1.701 -2.42,-1.804c-1.804,-0 -3.204,0.301 -4.202,0.902Zm6.622,6.16l0,-1.694c-0.396,-0.777 -1.349,-1.166 -2.86,-1.166c-1.804,0.205 -2.757,0.909 -2.86,2.112c0.103,1.188 1.056,1.833 2.86,1.936c1.511,-0 2.464,-0.396 2.86,-1.188Zm12.188,-5.038l0,9.548l-4.224,-0l0,-14.586l4.224,-0.462l0,1.364c1.012,-0.895 2.215,-1.342 3.608,-1.342c1.907,-0 3.359,0.572 4.356,1.716c0.998,1.159 1.496,2.493 1.496,4.004l0,9.306l-4.202,-0l0,-8.272c0,-0.997 -0.249,-1.775 -0.748,-2.332c-0.513,-0.543 -1.276,-0.829 -2.288,-0.858c-0.865,0.059 -1.606,0.697 -2.222,1.914Zm17.204,9.548l-4.202,-0l0,-15.048l4.202,-0l0,15.048Zm-4.356,-18.634c0,0.601 0.198,1.1 0.594,1.496c0.411,0.396 0.968,0.594 1.672,0.594c0.69,-0 1.24,-0.198 1.65,-0.594c0.396,-0.396 0.594,-0.895 0.594,-1.496c0,-0.601 -0.198,-1.107 -0.594,-1.518c-0.41,-0.411 -0.975,-0.616 -1.694,-0.616c-0.674,-0 -1.217,0.205 -1.628,0.616c-0.396,0.411 -0.594,0.917 -0.594,1.518Zm9.966,7.964l-1.65,-2.552c1.907,-1.203 4.114,-1.804 6.622,-1.804c1.804,-0 3.234,0.499 4.29,1.496c1.042,1.012 1.562,2.515 1.562,4.51l0,9.02l-4.202,-0l0,-1.188c-1.217,0.792 -2.317,1.188 -3.3,1.188c-2.009,-0 -3.512,-0.425 -4.51,-1.276c-1.012,-0.851 -1.518,-2.024 -1.518,-3.52c0,-1.408 0.477,-2.662 1.43,-3.762c0.939,-1.1 2.472,-1.65 4.598,-1.65c0.968,-0 2.068,0.301 3.3,0.902l0,-0.462c-0.014,-1.1 -0.814,-1.701 -2.398,-1.804c-1.804,-0 -3.212,0.301 -4.224,0.902Zm6.622,6.16l0,-1.694c-0.396,-0.777 -1.349,-1.166 -2.86,-1.166c-1.804,0.205 -2.757,0.909 -2.86,2.112c0.103,1.188 1.056,1.833 2.86,1.936c1.511,-0 2.464,-0.396 2.86,-1.188Z" style="fill:#fd2d01;fill-rule:nonzero;"/></g><g id="_9269873b-566f-aa23-fe77-697bbc54db67" serif:id="9269873b-566f-aa23-fe77-697bbc54db67"><g><g><g><path d="M15.443,29.443c3.87,-0 7.498,-1.486 10.228,-4.215c2.729,-2.73 4.215,-6.358 4.215,-10.228c-0,-3.87 -1.486,-7.498 -4.215,-10.228c-2.73,-2.729 -6.358,-4.215 -10.228,-4.215c-3.87,-0 -7.498,1.486 -10.228,4.215c-2.729,2.73 -4.215,6.358 -4.215,10.228c0,3.87 1.486,7.498 4.215,10.228c2.73,2.729 6.358,4.215 10.228,4.215Zm0.829,-2.453c-0.276,0.034 -0.553,0.034 -0.829,0.034c-0.38,0 -0.76,-0.034 -1.14,-0.069c-1.244,-1.935 -2.177,-4.008 -2.73,-6.185l6.116,0c0.207,0.519 0.587,1.002 1.036,1.313c-0.587,1.728 -1.416,3.352 -2.453,4.907Zm3.283,-0.691c0.656,-1.21 1.175,-2.419 1.589,-3.697c1.002,-0.208 1.797,-0.899 2.177,-1.832l2.661,0c-1.383,2.523 -3.698,4.492 -6.427,5.529Zm7.878,-11.299c-0,1.14 -0.173,2.246 -0.449,3.317l-3.732,0c-0.207,-0.449 -0.553,-0.864 -0.968,-1.175c0.07,-0.76 0.104,-1.52 0.104,-2.28c0,-1.071 -0.069,-2.142 -0.207,-3.179l4.768,-0c0.346,1.037 0.484,2.177 0.484,3.317Zm-1.451,-5.77l-4.216,-0c-0.449,-1.901 -1.106,-3.697 -2.004,-5.425c2.626,1.002 4.837,2.971 6.22,5.425Zm-6.013,5.632c0,0.587 -0.034,1.175 -0.069,1.762c-0.967,0.207 -1.762,0.829 -2.142,1.693l-6.669,0c-0.138,-1.037 -0.241,-2.108 -0.241,-3.144c-0,-0.657 0.034,-1.313 0.103,-1.97c0.899,-0.173 1.624,-0.76 2.073,-1.52l6.738,-0c0.138,1.037 0.207,2.108 0.207,3.179Zm-5.424,-11.817c0.311,-0.035 0.622,-0.035 0.898,-0.035c0.346,0 0.691,0 1.037,0.035c1.243,1.935 2.176,4.008 2.729,6.185l-6.012,-0c-0.207,-0.588 -0.587,-1.106 -1.071,-1.486c0.622,-1.659 1.417,-3.213 2.419,-4.699Zm-3.283,0.691c-0.587,1.106 -1.106,2.28 -1.52,3.455c-1.071,0.207 -1.935,1.002 -2.281,2.004l-2.522,0c1.348,-2.453 3.593,-4.423 6.323,-5.459Zm-7.809,11.264c0,-1.14 0.173,-2.28 0.484,-3.317l3.766,-0c0.208,0.38 0.519,0.726 0.864,1.002c-0.069,0.829 -0.138,1.658 -0.138,2.488c-0,1.071 0.069,2.107 0.207,3.144l-4.699,0c-0.346,-1.071 -0.484,-2.177 -0.484,-3.317Zm5.598,5.736c0.449,1.866 1.105,3.697 2.004,5.424c-2.626,-1.036 -4.803,-2.971 -6.151,-5.424l4.147,-0Z" style="fill:#ffd7d7;fill-rule:nonzero;"/></g></g></g></g></g></svg>